<?xml version="1.0" standalone="no"?><!DOCTYPE svg PUBLIC "-//W3C//DTD SVG 1.1//EN" "http://www.w3.org/Graphics/SVG/1.1/DTD/svg11.dtd"><svg t="1566764812199" class="icon" viewBox="0 0 1024 1024" version="1.1" xmlns="http://www.w3.org/2000/svg" p-id="3578" xmlns:xlink="http://www.w3.org/1999/xlink" width="32" height="32"><defs><style type="text/css"></style></defs><path d="M723.168 877.202h-163.872c-14.934 0-27.044-12.11-27.044-27.044s12.11-27.044 27.044-27.044h163.872c25.56 0 46.356-20.792 46.356-46.354 0-14.934 12.11-27.044 27.044-27.044 14.934 0 27.044 12.11 27.044 27.044 0 55.384-45.058 100.442-100.444 100.442z" fill="#8a8a8a" p-id="3579"></path><path d="M677.936 1024h-163.872c-55.384 0-100.442-45.058-100.442-100.442s45.058-100.444 100.442-100.444h163.872c14.934 0 27.044 12.11 27.044 27.044s-12.11 27.044-27.044 27.044h-163.872c-25.56 0-46.354 20.794-46.354 46.356s20.794 46.354 46.354 46.354h163.872c14.934 0 27.044 12.11 27.044 27.044S692.868 1024 677.936 1024zM420.902 320.354h-0.008c-43.768-0.008-103.684-60.248-145.164-116.622-27.05-36.764-48.492-74.688-60.376-106.786-16.046-43.336-13.446-73.208 7.722-88.78C230.336 2.824 239.282 0 248.954 0c43.766 0 103.684 60.244 145.166 116.622 27.05 36.764 48.492 74.688 60.376 106.786 16.046 43.332 13.446 73.206-7.722 88.78-7.262 5.344-16.208 8.166-25.872 8.166zM260.096 58.48c4.39 20.784 21.798 62.366 59.2 113.196 37.402 50.832 71.918 79.82 90.456 90.196-4.392-20.786-21.798-62.366-59.2-113.192-37.402-50.836-71.92-79.826-90.456-90.2zM870.946 714.468c-13.604 0-29.764-3.45-48.43-10.364-32.098-11.886-70.024-33.326-106.786-60.376-36.764-27.05-68.518-56.876-89.416-83.988-28.214-36.598-34.618-65.89-19.038-87.058 8.852-12.034 25.784-14.602 37.808-5.752 10.612 7.808 13.868 21.902 8.408 33.374 3.316 13.646 32.844 54.644 94.292 99.858 50.83 37.4 92.412 54.81 113.196 59.2-10.374-18.536-39.366-53.054-90.2-90.456-12.03-8.852-14.606-25.782-5.754-37.81 8.848-12.032 25.776-14.606 37.81-5.754 36.764 27.052 68.518 56.876 89.416 83.988 28.212 36.596 34.618 65.888 19.042 87.058-8.868 12.048-22.372 18.08-40.348 18.08z" fill="#8a8a8a" p-id="3580"></path><path d="M614.03 760.516c-85.91-35.922-180.486-102.97-266.302-188.786S194.866 391.34 158.942 305.428c-37.366-89.34-36.748-159.746 1.738-198.234l76.55-76.55c0.406-0.406 0.976-0.582 1.698-0.546-20.324 15.488 5.818 85.896 58.58 157.604 52.92 71.924 112.57 117.904 133.234 102.702a14.142 14.142 0 0 0 3.128-3.234c-2.364 5.092-5.726 9.946-10.214 14.436l-55.146 55.146c-9.736 9.744-10.604 25.146-2.002 35.836 23.214 28.856 48.766 57.258 75.934 84.426s55.572 52.72 84.426 75.934c10.688 8.6 26.09 7.734 35.836-2.004l55.146-55.146c4.49-4.49 9.344-7.85 14.436-10.214a14.06 14.06 0 0 0-3.234 3.128c-15.204 20.662 30.778 80.312 102.702 133.234 71.71 52.762 142.118 78.904 157.604 58.58 0.036 0.722-0.14 1.292-0.546 1.698l-76.55 76.55c-38.486 38.49-108.892 39.106-198.232 1.742z" fill="#8a8a8a" p-id="3581"></path><path d="M730.646 815.14c-37.224 0-79.968-9.982-127.052-29.676-89.078-37.244-186.738-106.362-274.99-194.61-88.25-88.25-157.364-185.91-194.61-274.994C92.112 215.73 94.8 134.83 141.56 88.072L218.11 11.52c5.49-5.47 12.808-8.47 20.638-8.47 0.46 0 1.106 0.016 1.568 0.04a27.05 27.05 0 0 1 18.688 45.14c-0.96 13.914 15.006 61.898 60.294 123.444 43.654 59.328 83.38 88.904 98.348 93.854a27.046 27.046 0 0 1 40.756 33.034c-3.77 8.114-9.022 15.572-15.618 22.166l-55.066 55.066c22.55 28.014 47.394 55.632 73.856 82.092 26.514 26.514 54.188 51.408 82.256 73.984l54.902-55.2c6.61-6.604 14.068-11.858 22.178-15.62 12.69-5.882 27.76-1.134 34.774 10.964 5.576 9.606 4.6 21.33-1.75 29.8 4.95 14.968 34.526 54.696 93.854 98.348 53.72 39.528 102.456 60.21 122.828 60.21 0.268 0 0.508-0.006 0.728-0.01a27.032 27.032 0 0 1 26.06-5.658 27.04 27.04 0 0 1 18.976 24.534c0.394 8.292-2.678 16.35-8.434 22.108l-76.55 76.55c-24.374 24.366-59.21 37.244-100.75 37.244zM213.58 92.544L179.808 126.32c-29.78 29.78-28.29 91.26 4.086 168.676 34.594 82.738 99.57 174.226 182.958 257.612s174.876 148.36 257.61 182.958c40.438 16.914 76.164 25.486 106.186 25.486 27.268 0 48.292-7.2 62.494-21.4l33.926-33.926c-36.982-12.87-78.738-38.01-111.34-61.996-36.764-27.052-68.518-56.876-89.416-83.988-5.424-7.04-10.046-13.808-13.858-20.302l-30.624 30.628c-10.228 10.218-23.788 15.836-38.188 15.836a54.004 54.004 0 0 1-33.722-11.888c-29.578-23.794-58.712-49.996-86.598-77.882-27.888-27.888-54.088-57.022-77.884-86.598-17.268-21.46-15.572-52.37 3.942-71.902l30.654-30.658c-35.782-20.892-74.734-63.052-104.308-103.248-10.792-14.67-45.704-64.122-62.146-111.184z" fill="#8a8a8a" p-id="3582"></path></svg>